<?xml version="1.0" encoding="utf-8" ?>	<!-- Generator: Assembly 2.4 - http://assemblyapp.co -->	
<svg version="1.1" xmlns="http://www.w3.org/2000/svg" xmlns:xlink="http://www.w3.org/1999/xlink" width="40" height="40" viewBox="0 0 4096.0 4096.0">		<g id="document" transform="scale(13.653333333333334 13.653333333333334) translate(150.0 150.0)">			<path d="M53.5075,-61.2307 L-53.3686,-61.2307 C-90.4262,-61.2307 -120.233,-31.4236 -120.233,5.36543 C-120.233,42.1544 -90.4262,71.9616 -53.6371,71.9616 L53.5075,71.9616 C90.2965,71.9616 120.104,42.1544 120.104,5.36543 C120.372,-31.4236 90.565,-61.2307 53.5075,-61.2307 Z M-53.6371,52.8957 C-79.9534,52.8957 -101.167,31.6817 -101.167,5.36543 C-101.167,-20.9508 -79.9534,-42.1649 -53.6371,-42.1649 C-27.3209,-42.1649 -6.37536,-20.9508 -6.37536,5.36543 C-6.10683,31.6817 -27.3209,52.8957 -53.6371,52.8957 Z M52.4333,52.8957 C26.1171,52.8957 4.90302,31.6817 4.90302,5.36543 C4.90302,-20.9508 26.1171,-42.1649 52.4333,-42.1649 C78.7496,-42.1649 99.9637,-20.9508 99.9637,5.36543 C99.9637,31.6817 78.7496,52.8957 52.4333,52.8957 Z M-36.451,5.36543 C-36.451,-4.1262 -44.1455,-11.8207 -53.6371,-11.8207 C-63.1288,-11.8207 -70.8233,-4.1262 -70.8233,5.36543 C-70.8233,14.8571 -63.1288,22.5515 -53.6371,22.5515 C-44.1455,22.5515 -36.451,14.8571 -36.451,5.36543 Z M69.6194,5.36543 C69.6194,-4.1262 61.925,-11.8207 52.4333,-11.8207 C42.9417,-11.8207 35.2472,-4.1262 35.2472,5.36543 C35.2472,14.8571 42.9417,22.5515 52.4333,22.5515 C61.925,22.5515 69.6194,14.8571 69.6194,5.36543 Z " fill="#2c2c2c" fill-opacity="1.00" />			<path d="M86.2552,-108.645 C86.2552,-115.134 81.0809,-120.309 74.591,-120.309 C68.1012,-120.309 62.9269,-115.134 62.9269,-108.645 C62.9269,-103.646 66.0841,-99.3484 70.5568,-97.6821 L70.5568,-45.676 C70.5568,-43.4835 72.3985,-41.6418 74.591,-41.6418 C76.7836,-41.6418 78.6253,-43.4835 78.6253,-45.676 L78.6253,-97.6821 C83.098,-99.2607 86.2552,-103.646 86.2552,-108.645 Z " fill="#2c2c2c" fill-opacity="1.00" />			<path d="M13.6425,46.1364 C13.6425,53.6223 7.53853,59.7262 0.052581,59.7262 C-7.43337,59.7262 -13.5373,53.6223 -13.5373,46.1364 L-17.2611,46.1364 C-17.2611,55.6953 -9.5064,63.45 0.0525811,63.45 C9.61156,63.45 17.3662,55.6953 17.3662,46.1364 L13.6425,46.1364 Z " fill="#ff8c69" fill-opacity="1.00" />			<path d="M32.4017,-75.1249 L40.5395,-82.1001 L32.4017,-89.0753 L40.5395,-96.0505 L33.7967,-101.786 C36.2768,-103.646 37.9044,-106.668 37.9044,-110.001 C37.9044,-115.736 33.3317,-120.309 27.5966,-120.309 C21.8614,-120.309 17.3662,-115.659 17.3662,-110.001 C17.3662,-105.273 20.5438,-101.321 24.884,-100.081 L29.6891,-96.0505 L21.5514,-89.0753 L29.6891,-82.1001 L21.5514,-75.1249 L29.6891,-68.1497 L21.5514,-61.1744 L32.8667,-51.6416 C33.5642,-51.0991 34.3393,-50.7891 35.1918,-50.7891 C36.1993,-50.7891 37.2068,-51.1766 37.9044,-52.0292 C39.1444,-53.5792 38.9894,-55.7493 37.5169,-57.0668 L32.5567,-61.3294 L40.6945,-68.3047 L32.4017,-75.1249 Z " fill="#2c2c2c" fill-opacity="1.00" />		</g>	</svg>